<svg xmlns="http://www.w3.org/2000/svg" xmlns:xlink="http://www.w3.org/1999/xlink" width="24" height="24" viewBox="0 0 24 24">
  <defs>
    <clipPath id="clip-path">
      <rect id="Rectangle_191" data-name="Rectangle 191" width="24" height="24" transform="translate(38 419)" fill="#fff" stroke="#707070" stroke-width="1"/>
    </clipPath>
  </defs>
  <g id="icon-mail" transform="translate(-38 -419)" clip-path="url(#clip-path)">
    <g id="Group_296" data-name="Group 296" transform="translate(40.368 421.25)">
      <path id="Path_356" data-name="Path 356" d="M1.5,8.67v6.645a2.323,2.323,0,0,0,2.323,2.323H15.44a2.323,2.323,0,0,0,2.323-2.323V8.67l-6.914,4.254a2.323,2.323,0,0,1-2.435,0Z" transform="translate(0 -1.11)" fill="#fff"/>
      <path id="Path_357" data-name="Path 357" d="M17.763,6.2V6.073A2.323,2.323,0,0,0,15.44,3.75H3.823A2.323,2.323,0,0,0,1.5,6.073V6.2l7.523,4.63a1.162,1.162,0,0,0,1.217,0Z" transform="translate(0 0)" fill="#fff"/>
    </g>
  </g>
</svg>
