<svg xmlns="http://www.w3.org/2000/svg" xmlns:xlink="http://www.w3.org/1999/xlink" width="24" height="24" viewBox="0 0 24 24">
  <defs>
    <clipPath id="clip-path">
      <rect id="Rectangle_193" data-name="Rectangle 193" width="24" height="24" transform="translate(38 419)" fill="#fff" stroke="#707070" stroke-width="1"/>
    </clipPath>
  </defs>
  <g id="icon-web" transform="translate(-38 -419)" clip-path="url(#clip-path)">
    <path id="Path_359" data-name="Path 359" d="M18.224,10.895a8.009,8.009,0,0,0-.775-4.116,10.459,10.459,0,0,1-3.56,2.228,15.667,15.667,0,0,1-.176,3.926,14.064,14.064,0,0,0,4.511-2.038ZM12.41,13.2a14.291,14.291,0,0,0,.272-3.823,10.452,10.452,0,0,1-2.433.285,10.452,10.452,0,0,1-2.433-.285A14.449,14.449,0,0,0,8.088,13.2a14.224,14.224,0,0,0,4.322,0ZM8.421,14.487a15.515,15.515,0,0,0,3.656,0,14.152,14.152,0,0,1-1.828,3.789,14.151,14.151,0,0,1-1.828-3.789ZM6.784,12.933a15.567,15.567,0,0,1-.176-3.928A10.459,10.459,0,0,1,3.048,6.778a8.009,8.009,0,0,0-.774,4.117,14.064,14.064,0,0,0,4.511,2.038Zm11.141-.393a8.02,8.02,0,0,1-6.135,5.608,15.358,15.358,0,0,0,1.631-3.882,15.256,15.256,0,0,0,4.5-1.726Zm-15.352,0a15.249,15.249,0,0,0,4.5,1.727,15.358,15.358,0,0,0,1.631,3.882,8.02,8.02,0,0,1-6.135-5.608ZM11.79,2.4a8,8,0,0,1,5.018,3.279,9.242,9.242,0,0,1-3.073,2.06A15.354,15.354,0,0,0,11.79,2.4Zm-1.541-.127a14.134,14.134,0,0,1,2.3,5.858,9.231,9.231,0,0,1-2.3.29,9.193,9.193,0,0,1-2.3-.29,14.133,14.133,0,0,1,2.3-5.858ZM8.708,2.4A15.353,15.353,0,0,0,6.764,7.742,9.241,9.241,0,0,1,3.69,5.682,8,8,0,0,1,8.708,2.4Z" transform="translate(39.751 420.724)" fill="#fff"/>
  </g>
</svg>
